<?xml version="1.0" encoding="UTF-8"?>
<svg xmlns="http://www.w3.org/2000/svg" width="106" height="47" fill="none">
  <path d="M104.233 19.19c-.624-.947-1.871-1.579-3.744-1.896-2.964-.474-8.424-.79-12.793-1.105-2.965-.158-5.46-.474-6.397-.474-.78-.158-1.404-.316-2.028-.79l-7.333-8.369C68.506 2.61 63.513.398 58.364.398H20.297c-5.461 0-10.454 3-13.106 7.738l-4.369 7.737C.951 19.19.64 23.137 1.886 26.611l2.34 6.631v1.58c-.156 1.736-.156 3.158.781 4.105.468.474 1.248.79 2.34.79h5.305c1.56 3.947 5.304 6.79 9.83 6.79 4.368 0 8.268-2.843 9.828-6.79h45.245c1.56 3.947 5.305 6.79 9.83 6.79 4.368 0 8.269-2.843 9.828-6.79h5.773c.157 0 .312 0 .469-.158.156-.159.155-.316.155-.474v-6.632c0-2.369.469-4.58.936-6.475.157-2.842.781-5.21-.312-6.79l-.001.002zM7.191 38.455c-.78 0-1.248-.159-1.404-.474-.469-.474-.469-1.738-.312-3.159v-1.579h6.708c-.156.79-.312 1.737-.312 2.527 0 .947.156 1.737.312 2.685H7.191v0zm23.87 0c0 .157-.156.474-.156.631 0 .158-.156.474-.312.632-1.404 3.315-4.68 5.527-8.425 5.527-3.744 0-7.02-2.21-8.425-5.527-.155-.159-.156-.474-.312-.632 0-.158-.156-.474-.156-.631-.312-.79-.469-1.737-.469-2.685 0-.947.156-1.737.469-2.527 0-.157.156-.474.156-.631 0-.158.157-.474.157-.632 1.404-3.316 4.68-5.684 8.425-5.684 3.744 0 7.02 2.368 8.425 5.684.155.159.155.474.155.632 0 .157.157.474.157.631.156.79.468 1.737.468 2.527.312.947.157 1.737-.155 2.685h-.001zm1.249 0c.156-.79.312-1.737.312-2.685 0-.947-.157-1.737-.312-2.527h44.464c-.155.79-.312 1.737-.312 2.527 0 .947.157 1.737.312 2.685H32.31v0zm63.498 0c0 .157-.155.474-.155.631 0 .158-.157.474-.312.632-1.404 3.315-4.68 5.527-8.425 5.527-3.745 0-7.021-2.21-8.425-5.527-.156-.159-.156-.474-.312-.632 0-.158-.157-.474-.157-.631-.312-.79-.467-1.737-.467-2.685 0-.947.155-1.737.467-2.527 0-.157.157-.474.157-.631 0-.158.156-.474.156-.632 1.404-3.316 4.68-5.684 8.424-5.684 3.744 0 7.021 2.368 8.425 5.684.157.159.157.474.157.632 0 .157.155.474.155.631.157.79.469 1.737.469 2.527.312.947.156 1.737-.157 2.685zm6.085 0h-4.836c.156-.79.312-1.737.312-2.685 0-.947-.156-1.737-.312-2.527h4.836v5.212zm1.092-12.79c-.468 1.895-.935 4.105-.935 6.315h-5.305c-1.56-3.947-5.305-6.79-9.83-6.79-4.523 0-8.268 2.843-9.829 6.79H31.841c-1.56-3.947-5.304-6.79-9.83-6.79-4.524 0-8.268 2.843-9.828 6.79H4.85l-2.028-5.843c-.469-1.263-.624-2.527-.624-3.631h3.744c.312 0 .624-.316.624-.632s-.312-.631-.624-.631H2.198c.157-1.737.624-3.316 1.405-4.896L7.97 8.61c2.497-4.422 7.021-7.106 12.014-7.106h38.067c4.837 0 9.518 2.053 12.638 5.685l7.489 8.527.156.157c.78.474 1.716.947 2.652.947.936.159 3.589.316 6.553.474 4.368.316 9.829.79 12.637 1.106 1.561.158 2.497.632 2.965 1.421.779 1.263.312 3.316-.157 5.843v0z" fill="#FC0012" stroke="#FC0012" stroke-width=".3"></path>
  <path d="M51.033 21.241h-3.121c-.312 0-.624.316-.624.631 0 .316.312.632.624.632h3.12c.313 0 .625-.316.625-.632 0-.315-.312-.631-.624-.631zM92.064 32.61c-.156-.158-.312-.474-.468-.631-1.092-1.422-2.809-2.37-4.68-2.37-1.872 0-3.59.948-4.68 2.37-.157.157-.313.474-.47.631-.156.157-.155.474-.311.632-.312.79-.624 1.578-.624 2.526 0 .949.312 1.895.624 2.685.156.158.156.474.312.631.155.158.312.474.468.632 1.092 1.421 2.808 2.21 4.68 2.21 1.873 0 3.589-.947 4.681-2.21a2.17 2.17 0 00.468-.632c.156-.158.156-.474.312-.631.312-.79.624-1.737.624-2.685 0-.947-.156-1.737-.624-2.526 0-.316-.156-.474-.312-.632v0zm-1.092 5.843c-.156.158-.312.474-.468.631l-.624.632c-.78.631-1.873.947-2.964.947-1.092 0-2.029-.316-2.965-.947-.312-.158-.468-.316-.624-.632-.156-.158-.312-.315-.468-.631-.468-.79-.78-1.737-.78-2.685 0-.947.312-1.737.78-2.526.156-.159.312-.474.468-.632l.624-.631c.78-.632 1.872-1.106 2.965-1.106 1.092 0 2.184.474 2.964 1.105.155.158.467.316.624.632.156.157.312.316.468.632.468.79.78 1.578.78 2.526 0 .949-.312 1.895-.78 2.685zM27.319 32.61c-.156-.158-.312-.474-.468-.631-1.093-1.422-2.81-2.37-4.681-2.37-1.872 0-3.588.948-4.68 2.37-.157.157-.313.474-.469.631-.156.157-.156.474-.312.632-.312.79-.624 1.578-.624 2.526 0 .949.312 1.895.624 2.685.157.158.157.474.312.631.156.158.312.474.468.632 1.093 1.421 2.81 2.21 4.681 2.21 1.872 0 3.588-.947 4.68-2.21.156-.158.313-.316.469-.632.156-.158.156-.474.312-.631.312-.79.624-1.737.624-2.685 0-.947-.157-1.737-.624-2.526-.156-.316-.156-.474-.312-.632v0zm-1.092 5.843c-.156.158-.312.474-.469.631l-.624.632c-.78.631-1.872.947-2.964.947-1.092 0-2.028-.316-2.964-.947a1.222 1.222 0 01-.624-.632 2.172 2.172 0 01-.469-.631c-.468-.79-.78-1.737-.78-2.685 0-.947.312-1.737.78-2.526.157-.159.313-.474.469-.632l.624-.631c.78-.632 1.872-1.106 2.964-1.106 1.092 0 2.185.474 2.964 1.105.156.158.469.316.624.632.156.157.312.316.469.632.468.79.78 1.578.78 2.526 0 .949-.312 1.895-.78 2.685zm-.001-17.212h-3.12c-.313 0-.625.316-.625.631 0 .316.312.632.624.632h3.12c.313 0 .625-.316.625-.632 0-.315-.312-.631-.624-.631zm75.512-.151a.858.858 0 00-.781.473l-.936 4.896a.87.87 0 00.468.79h.156c.312 0 .468-.158.624-.473l.936-4.896a.87.87 0 00-.467-.79v0zM67.882 8.293c-2.497-3-6.24-4.737-9.985-4.737H20.92c-3.9 0-7.333 2.053-9.361 5.527a6.197 6.197 0 000 6.159c1.092 1.895 3.12 3.158 5.304 3.158H71.47c.936 0 1.56-.474 2.028-1.263.312-.79.312-1.737-.312-2.369l-5.304-6.474h-.001zm-51.018 8.843c-1.716 0-3.433-.947-4.212-2.527-.936-1.578-.936-3.474 0-4.895 1.716-3 4.837-4.896 8.269-4.896h2.496l-2.184 12.16h-4.37v.158zm5.46 0L24.51 5.135v-.316h17.474L43.7 17.136H22.325v0zm22.467 0L43.075 4.82h14.822c1.716 0 3.276.316 4.837.947l3.588 11.212h-21.53v.158zm27.615-.474c-.156.316-.468.632-.936.632h-4.056L64.136 6.872c1.093.632 2.028 1.421 2.809 2.527l5.304 6.316c.312.158.312.474.156.947v0z" fill="#FC0012" stroke="#FC0012" stroke-width=".3"></path>
</svg>
