<svg width="23" height="23" viewBox="0 0 23 23" fill="none" xmlns="http://www.w3.org/2000/svg">
<path d="M19.5481 5.811C19.2428 5.50575 18.7636 5.46074 18.4068 5.7039C17.0624 6.62022 10.3195 11.2279 9.59482 11.9525C8.54392 13.0035 8.54392 14.7134 9.59482 15.7643C10.1203 16.2897 10.8105 16.5525 11.5007 16.5525C12.1909 16.5525 12.8811 16.2897 13.4066 15.7643C14.1313 15.0397 18.7389 8.2967 19.6553 6.95237C19.8983 6.59556 19.8534 6.11633 19.5481 5.811ZM12.136 14.4937C11.7857 14.8441 11.2157 14.8441 10.8654 14.4937C10.5151 14.1435 10.5151 13.5736 10.8653 13.2233C11.1468 12.9451 13.0613 11.5797 15.4167 9.94246C13.7795 12.2979 12.4141 14.2122 12.136 14.4937Z" fill="black"/>
<path d="M4.14319 18.0372L3.03407 18.5782C2.22251 17.1299 1.79687 15.5133 1.79687 13.8584C1.79687 12.6459 2.02045 11.4846 2.42848 10.4137L3.69936 11.0232C3.82469 11.0833 3.95699 11.1118 4.08731 11.1118C4.42211 11.1118 4.74352 10.9238 4.89801 10.6017C5.11256 10.1544 4.92389 9.61768 4.47646 9.40309L3.22171 8.80123C4.78126 6.25775 7.47958 4.48446 10.6016 4.19651V5.54781C10.6016 6.04401 11.0038 6.44624 11.5 6.44624C11.9962 6.44624 12.3985 6.04401 12.3985 5.54781V4.19584C13.4689 4.29327 14.5046 4.56586 15.4878 5.00969C15.9399 5.21386 16.4721 5.01265 16.6763 4.56051C16.8805 4.10824 16.6794 3.57614 16.2271 3.37197C14.7372 2.69945 13.1468 2.3584 11.5 2.3584C8.42824 2.3584 5.54035 3.55458 3.36824 5.72664C1.19622 7.89875 0 10.7866 0 13.8584C0 16.1283 0.673738 18.3359 1.9484 20.2425C2.12009 20.4992 2.40395 20.6416 2.69585 20.6416C2.82855 20.6416 2.96296 20.6122 3.08923 20.5506L4.93103 19.6522C5.37701 19.4346 5.56218 18.8968 5.34462 18.4508C5.12707 18.0049 4.58917 17.8197 4.14319 18.0372Z" fill="black"/>
<path d="M21.9866 9.13159C21.7825 8.67936 21.2505 8.47811 20.7981 8.68237C20.3459 8.88654 20.1447 9.41864 20.3489 9.87087C20.9159 11.1268 21.2034 12.4685 21.2034 13.8586C21.2034 15.516 20.7763 17.1352 19.9624 18.5852L18.8045 18.0338C18.3565 17.8205 17.8204 18.0107 17.607 18.4587C17.3937 18.9067 17.5839 19.4428 18.0319 19.6562L19.9187 20.5546C20.0428 20.6137 20.1743 20.6419 20.3044 20.6419C20.5964 20.6419 20.8803 20.4993 21.0518 20.2427C22.3265 18.3362 23.0002 16.1285 23.0002 13.8586C23.0002 12.2118 22.6592 10.6214 21.9866 9.13159Z" fill="black"/>
</svg>
