<svg width="23" height="23" viewBox="0 0 23 23" fill="none" xmlns="http://www.w3.org/2000/svg">
<g clip-path="url(#clip0_190_9250)">
<path d="M13.6562 4.3125C13.6562 3.91553 13.3345 3.59375 12.9375 3.59375H5.75C5.35303 3.59375 5.03125 3.91553 5.03125 4.3125V10.0625C5.03125 10.4595 5.35303 10.7812 5.75 10.7812H12.9375C13.3345 10.7812 13.6562 10.4595 13.6562 10.0625V4.3125ZM12.2188 9.34375H6.46875V5.03125H12.2188V9.34375Z" fill="black"/>
<path d="M21.9011 5.09652L19.0347 3.65902C18.6788 3.48073 18.2522 3.62569 18.0746 3.98048C17.897 4.33563 18.0431 4.76733 18.3982 4.94491L19.4898 5.49022C19.4606 5.56838 19.4229 5.65104 19.4229 5.73949C19.4229 6.6753 20.125 7.46566 20.8438 7.76326V16.5207C20.8438 16.9169 20.5212 17.2395 20.125 17.2395C19.7288 17.2395 19.4062 16.9169 19.4062 16.5207V10.7707C19.4062 9.03536 17.9688 7.58358 16.5312 7.24963V2.86449C16.5312 1.27924 15.2758 0 13.6906 0H5.06557C3.48032 0 2.15625 1.27924 2.15625 2.86449V18.9514L1.11604 19.4715C0.872473 19.5933 0.71875 19.8421 0.71875 20.1145V22.2707C0.71875 22.6677 1.07489 23 1.47182 23H17.2843C17.6812 23 17.9688 22.6677 17.9688 22.2707V20.1145C17.9688 19.8421 17.815 19.5933 17.5715 19.4715L16.5312 18.9514V8.74696C17.25 9.04457 17.9688 9.83493 17.9688 10.7707V16.5207C17.9688 17.7098 18.936 18.677 20.125 18.677C21.314 18.677 22.2812 17.7098 22.2812 16.5207V5.73949C22.2812 5.46713 22.1447 5.2183 21.9011 5.09652ZM16.5312 21.5625H2.15625V20.5588L3.19646 20.0387C3.44003 19.9169 3.59375 19.6681 3.59375 19.3957V2.86444C3.59375 2.07166 4.27274 1.4375 5.06557 1.4375H13.6906C14.4834 1.4375 15.0938 2.07166 15.0938 2.86449V19.3957C15.0938 19.6681 15.2475 19.9169 15.491 20.0387L16.5312 20.5588V21.5625Z" fill="black"/>
</g>
<defs>
<clipPath id="clip0_190_9250">
<rect width="23" height="23" fill="white"/>
</clipPath>
</defs>
</svg>
