<?xml version="1.0" encoding="UTF-8"?>
<svg xmlns="http://www.w3.org/2000/svg" width="120" height="47" fill="none">
  <path d="M109.958 16.146l-17.204-.674c-.844 0-1.856-.338-2.53-.675L79.26 7.377C72.514 2.821 64.587.46 56.322.46H40.468c-3.71 0-7.253 1.012-10.457 2.867l-16.192 9.277c-.337.168-.675.337-1.012.337l-4.554.168c-1.856 0-3.71.675-5.06 2.024C1.843 16.484 1 18.171 1 20.195v6.072c0 7.083 5.734 12.987 12.987 12.987h1.35C17.191 43.134 21.07 46 25.624 46s8.602-2.699 10.288-6.746h49.251C87.02 43.134 90.898 46 95.453 46c4.554 0 8.602-2.699 10.288-6.746h.338c7.084 0 12.987-5.735 12.987-12.987.506-5.735-3.711-9.952-9.108-10.12v0zM14.999 37.567h-.844c-4.554 0-8.602-2.698-10.457-6.578h11.47c-.338 1.012-.507 2.193-.507 3.373 0 1.012.169 2.193.337 3.205H15zm20.409 0c-.168.506-.337.844-.506 1.35-1.686 3.204-5.06 5.396-8.77 5.396s-7.253-2.193-8.939-5.397c-.17-.337-.337-.843-.506-1.349-.337-1.012-.674-2.193-.674-3.373 0-1.18.168-2.361.674-3.373.169-.506.338-.844.506-1.35 1.686-3.204 5.06-5.396 8.771-5.396 3.712 0 7.084 2.193 8.77 5.397.168.337.338.843.507 1.349.337 1.012.674 2.193.674 3.373 0 1.18-.168 2.361-.506 3.373h-.001zm49.756 0H36.757c.337-1.012.507-2.193.507-3.373 0-1.18-.17-2.361-.507-3.373h48.407c-.337 1.012-.505 2.193-.505 3.373 0 1.18.168 2.361.505 3.373zm20.24 0c-.168.506-.337.844-.506 1.35-1.686 3.204-5.06 5.396-8.77 5.396-3.88 0-7.253-2.193-8.77-5.397-.17-.337-.338-.843-.507-1.349-.338-1.012-.675-2.193-.675-3.373 0-1.18.17-2.361.675-3.373.169-.506.337-.844.506-1.35 1.687-3.204 5.06-5.396 8.77-5.396s7.085 2.193 8.771 5.397c.169.337.338.843.506 1.349.337 1.012.675 2.193.675 3.373-.169 1.181-.338 2.361-.675 3.373zm1.349 0c.338-1.012.507-2.193.507-3.373 0-1.18-.169-2.361-.507-3.373h10.289a11.87 11.87 0 01-10.289 6.746v0zm-.505-7.927c-1.856-3.88-5.736-6.747-10.289-6.747s-8.602 2.699-10.288 6.747H36.25c-1.856-3.88-5.735-6.747-10.289-6.747-4.554 0-8.602 2.699-10.288 6.747H3.192a9.82 9.82 0 01-.505-3.205H6.06a.727.727 0 00.674-.675.727.727 0 00-.674-.674H2.687V20.87H6.06a.727.727 0 00.674-.675.727.727 0 00-.674-.675H2.855c.168-1.349.674-2.698 1.686-3.71s2.53-1.519 3.88-1.519h.169l4.554-.168c.507 0 1.181-.168 1.687-.506l16.192-9.445c3.036-1.686 6.409-2.698 9.783-2.698H56.66c7.927 0 15.517 2.36 22.095 6.746l10.963 7.42a10.19 10.19 0 003.204 1.013l17.204.674c3.037.168 5.566 1.687 6.916 4.048h-6.578a.73.73 0 00-.675.675.726.726 0 00.675.674h7.252c.338 1.012.675 2.024.675 3.205 0 1.35-.168 2.53-.675 3.71h-11.469z" fill="#FC0012" stroke="#FC0012" stroke-width=".3"></path>
  <path d="M57.165 4.34H42.661c-3.543 0-7.084 1.519-9.614 4.217a4.147 4.147 0 00-.844 4.554c.675 1.518 2.024 2.53 3.71 2.53l47.227 1.52c.338 0 .675-.169.675-.506v-.507l-4.217-3.542C73.526 7.377 65.43 4.34 57.165 4.34v0zM35.913 14.46c-1.18 0-2.193-.675-2.53-1.856-.505-1.012-.168-2.193.675-3.205 2.193-2.361 5.397-3.71 8.602-3.71h12.144l3.373 9.444-22.264-.674v0zm23.613.843s0-.168 0 0L56.153 5.69h1.012c7.928 0 15.686 2.867 21.758 7.927l2.699 2.361-22.096-.675v0zm40.987 14.337c-1.18-1.181-2.698-1.856-4.554-1.856-1.856 0-3.373.675-4.553 1.856-.337.337-.675.843-1.012 1.349a6.082 6.082 0 00-1.012 3.373 6.08 6.08 0 001.012 3.373c.337.506.675.843 1.012 1.35 1.18 1.18 2.867 1.855 4.553 1.855 1.687 0 3.374-.674 4.554-1.856.338-.337.675-.843 1.012-1.349.507-1.012 1.012-2.024 1.012-3.373a6.077 6.077 0 00-1.012-3.373c-.337-.506-.674-1.012-1.012-1.35zm-.674 7.927c-.506.505-1.012 1.012-1.687 1.35-.674.337-1.518.674-2.361.674-.843 0-1.686-.168-2.361-.675-.675-.337-1.181-.843-1.687-1.349a5.432 5.432 0 01-1.18-3.373c0-1.35.506-2.361 1.18-3.373.506-.506 1.012-1.012 1.687-1.35.674-.337 1.517-.505 2.361-.505.844 0 1.517.168 2.361.505.675.338 1.181.844 1.687 1.35.844.843 1.181 2.024 1.181 3.373.168 1.35-.337 2.53-1.181 3.373zm-35.25-17.541h-3.373a.727.727 0 00-.675.675.727.727 0 00.675.674h3.373a.727.727 0 00.675-.674c0-.338-.168-.675-.675-.675zm-25.131 0h-3.373a.727.727 0 00-.675.675.727.727 0 00.675.674h3.373a.727.727 0 00.674-.674.727.727 0 00-.674-.675zm-8.941 9.614c-1.18-1.181-2.698-1.856-4.554-1.856-1.687 0-3.373.675-4.554 1.856-.337.337-.675.843-1.012 1.349a6.082 6.082 0 00-1.012 3.373 6.08 6.08 0 001.012 3.373c.337.506.675.843 1.012 1.35 1.181 1.18 2.867 1.855 4.554 1.855 1.856 0 3.373-.674 4.554-1.856.338-.337.675-.843 1.012-1.349.507-1.012 1.012-2.024 1.012-3.373a6.08 6.08 0 00-1.012-3.373c-.337-.506-.674-1.012-1.012-1.35zm-.674 7.927c-.507.505-1.012 1.012-1.687 1.35-.674.337-1.518.674-2.361.674-.843 0-1.687-.168-2.361-.675-.675-.337-1.18-.843-1.687-1.349a5.432 5.432 0 01-1.18-3.373c0-1.35.505-2.361 1.18-3.373.506-.506 1.012-1.012 1.687-1.35.674-.337 1.518-.505 2.36-.505.844 0 1.52.168 2.362.505.675.338 1.181.844 1.687 1.35.843.843 1.18 2.024 1.18 3.373.169 1.35-.337 2.53-1.18 3.373z" fill="#FC0012" stroke="#FC0012" stroke-width=".3"></path>
</svg>
