<?xml version="1.0" encoding="UTF-8"?>
<svg xmlns="http://www.w3.org/2000/svg" width="103" height="48" fill="none">
  <path d="M95.283 18.582l-18.353-2.22c-.297 0-.444-.148-.592-.296L65.829 3.781A9.223 9.223 0 0058.724.525H19.058a9.325 9.325 0 00-7.401 3.7L2.332 16.658A6.494 6.494 0 001 20.654V32.2c0 3.849 3.109 6.809 6.809 6.809h4.44C13.581 43.596 17.874 47 22.906 47s9.325-3.404 10.657-7.992H71.6C72.934 43.596 77.226 47 82.258 47s9.325-3.404 10.657-7.992h5.476c2.516 0 4.441-2.072 4.441-4.44V27.61c.295-4.588-3.109-8.436-7.549-9.028v0zm-83.478 17.17c0 .74 0 1.332.149 2.072H7.809c-3.108 0-5.476-2.368-5.624-5.476h10.213c-.444 1.036-.593 2.22-.593 3.404zm21.018 2.072c0 .148-.148.444-.148.592 0 .148-.149.444-.149.593a9.913 9.913 0 01-9.473 6.808 9.913 9.913 0 01-9.472-6.809c0-.148-.149-.444-.149-.592 0-.148-.148-.444-.148-.592-.148-.74-.148-1.332-.148-2.072 0-1.184.147-2.368.592-3.404 0-.149.148-.444.148-.593.149-.148.149-.444.296-.592 1.628-3.256 5.032-5.476 9.029-5.476 3.848 0 7.252 2.22 9.029 5.476.148.148.148.444.296.592.147.149.148.444.148.593.444 1.036.592 2.22.592 3.404-.296.74-.296 1.332-.444 2.072h0zm38.483-2.072c0 .74 0 1.332.147 2.072H34.007c.148-.74.148-1.332.148-2.072 0-1.184-.148-2.22-.444-3.404h38.187c-.444 1.036-.592 2.22-.592 3.404h0zm21.017 2.072c0 .148-.148.444-.148.592 0 .148-.148.444-.148.593a9.913 9.913 0 01-9.473 6.808 9.911 9.911 0 01-9.472-6.809c0-.148-.148-.444-.148-.592 0-.148-.149-.444-.149-.592-.147-.74-.147-1.332-.147-2.072 0-1.184.147-2.368.591-3.404 0-.149.149-.444.149-.593.148-.148.147-.444.295-.592 1.628-3.256 5.033-5.476 9.03-5.476 3.847 0 7.252 2.22 9.028 5.476.148.148.148.444.296.592.147.149.148.444.148.593.444 1.036.592 2.22.592 3.404-.296.74-.296 1.332-.444 2.072zm9.621-3.404c0 1.776-1.48 3.255-3.256 3.255h-5.18c.147-.74.147-1.332.147-2.072 0-1.183-.148-2.22-.445-3.404h8.882v2.22h-.148zm0-3.256h-9.325c-1.776-3.997-5.624-6.66-10.213-6.66-4.588 0-8.437 2.811-10.212 6.66H33.119c-1.777-3.997-5.625-6.66-10.213-6.66-4.588 0-8.436 2.811-10.213 6.66H2.037v-3.849h3.256c.295 0 .592-.295.592-.592s-.296-.592-.592-.592H2.037v-3.7h3.256c.295 0 .592-.296.592-.593 0-.296-.296-.592-.592-.592H2.037v-.74c0-1.184.444-2.369 1.036-3.256l9.325-12.433c1.48-2.072 3.848-3.256 6.512-3.256h39.667c2.368 0 4.588 1.037 6.216 2.812L75.3 16.658c.297.444.888.74 1.332.74l18.354 2.22c2.516.296 4.589 1.776 5.773 3.848h-5.18c-.297 0-.593.296-.593.593 0 .296.296.592.592.592h5.772c.297.888.444 1.776.444 2.664v3.849h.149z" fill="#FC0012" stroke="#FC0012" stroke-width=".3"></path>
  <path d="M87.438 31.753c-.148-.149-.295-.444-.444-.593-1.184-1.183-2.811-1.924-4.588-1.924a6.49 6.49 0 00-4.588 1.924c-.148.149-.296.444-.444.593-.147.148-.296.444-.444.592-.592 1.037-1.036 2.072-1.036 3.404 0 .74.148 1.48.444 2.072 0 .149.148.444.148.593.147.148.147.444.296.592 1.184 1.924 3.108 3.108 5.476 3.108s4.44-1.332 5.476-3.108c.148-.148.148-.444.297-.592.148-.149.147-.444.147-.593.297-.592.444-1.332.444-2.072 0-1.184-.296-2.367-1.035-3.404.147-.148 0-.296-.149-.592zm-.148 6.068c-.147.149-.147.444-.296.593-.148.148-.296.444-.444.592a5.18 5.18 0 01-4.144 2.072c-1.776 0-3.108-.74-4.144-2.072-.148-.148-.296-.444-.444-.592-.147-.149-.296-.444-.296-.593-.296-.592-.445-1.332-.445-2.072 0-1.332.445-2.367 1.185-3.404.148-.148.296-.444.592-.592.296-.149.444-.444.74-.593a5.114 5.114 0 012.664-.74 5.108 5.108 0 012.664.74c.296.149.593.296.74.593.148.148.444.295.592.592.74.888 1.184 2.072 1.184 3.404.296.74.149 1.332-.148 2.072zm-59.204-6.068c-.149-.149-.296-.444-.444-.593-1.184-1.183-2.812-1.924-4.589-1.924a6.49 6.49 0 00-4.588 1.924c-.148.149-.296.444-.444.593-.148.148-.296.444-.444.592-.592 1.037-1.036 2.072-1.036 3.404 0 .74.148 1.48.444 2.072 0 .149.148.444.148.593.148.148.148.444.296.592 1.184 1.924 3.108 3.108 5.476 3.108s4.44-1.332 5.476-3.108c.149-.148.149-.444.296-.592.148-.149.148-.444.148-.593.296-.592.445-1.332.445-2.072 0-1.184-.296-2.367-1.036-3.404 0-.148 0-.296-.148-.592zm-.296 6.068c-.148.149-.148.444-.296.593-.147.148-.296.444-.444.592a5.18 5.18 0 01-4.144 2.072c-1.776 0-3.108-.74-4.144-2.072-.148-.148-.296-.444-.444-.592-.149-.149-.296-.444-.296-.593-.296-.592-.444-1.332-.444-2.072 0-1.332.444-2.367 1.184-3.404.148-.148.296-.444.592-.592.297-.149.444-.444.74-.593a5.11 5.11 0 012.665-.74c1.036 0 1.923.296 2.664.74.296.149.592.296.74.593.148.148.444.295.592.592.74.888 1.184 2.072 1.184 3.404.296.74.148 1.332-.148 2.072h-.001zm25.014-18.944h-2.96c-.296 0-.593.295-.593.592 0 .296.296.592.593.592h2.96c.296 0 .592-.296.592-.592 0-.297-.295-.593-.592-.593zm-20.574 0h-2.96c-.295 0-.592.295-.592.592 0 .296.296.592.592.592h2.96c.296 0 .593-.296.593-.592 0-.297-.296-.593-.593-.593zm32.266-12.73c-1.333-1.776-3.553-2.812-5.773-2.812H22.46c-2.368 0-4.44 1.037-5.92 2.96l-6.216 8.29c-.444.592-.444 1.183-.148 1.775.295.593.888.889 1.48.889h58.168c.74 0 1.332-.444 1.628-1.037.297-.592.148-1.332-.148-1.776l-6.808-8.289zM11.952 16.212c-.296 0-.444-.148-.592-.296-.149-.147-.149-.444 0-.592l6.216-8.289c1.183-1.628 2.96-2.516 4.884-2.516h4.44l-2.96 11.693H11.953zm13.32 0L28.234 4.52h17.17l1.48 11.693h-21.61zm22.647 0L46.438 4.52h12.285c.444 0 .888 0 1.184.148l4.44 11.545H47.92zm22.497-.296c-.148.149-.296.296-.592.296H65.68l-4.292-11.1a6.56 6.56 0 012.22 1.776l6.661 8.436c.148.148.296.296.148.592z" fill="#FC0012" stroke="#FC0012" stroke-width=".3"></path>
</svg>
