<svg width="22" height="22" viewBox="0 0 22 22" fill="none" xmlns="http://www.w3.org/2000/svg">
<path fill-rule="evenodd" clip-rule="evenodd" d="M3.66732 2.0625C2.27582 2.0625 1.14648 3.19183 1.14648 4.58333C1.14648 5.97483 2.27582 7.10417 3.66732 7.10417C5.05882 7.10417 6.18815 5.97483 6.18815 4.58333C6.18815 3.19183 5.05882 2.0625 3.66732 2.0625ZM3.66732 3.4375C4.29982 3.4375 4.81315 3.95083 4.81315 4.58333C4.81315 5.21583 4.29982 5.72917 3.66732 5.72917C3.03482 5.72917 2.52148 5.21583 2.52148 4.58333C2.52148 3.95083 3.03482 3.4375 3.66732 3.4375Z" fill="black"/>
<path fill-rule="evenodd" clip-rule="evenodd" d="M3.66732 14.896C2.27582 14.896 1.14648 16.0253 1.14648 17.4168C1.14648 18.8083 2.27582 19.9377 3.66732 19.9377C5.05882 19.9377 6.18815 18.8083 6.18815 17.4168C6.18815 16.0253 5.05882 14.896 3.66732 14.896ZM3.66732 16.271C4.29982 16.271 4.81315 16.7843 4.81315 17.4168C4.81315 18.0493 4.29982 18.5627 3.66732 18.5627C3.03482 18.5627 2.52148 18.0493 2.52148 17.4168C2.52148 16.7843 3.03482 16.271 3.66732 16.271Z" fill="black"/>
<path fill-rule="evenodd" clip-rule="evenodd" d="M11.0013 2.0625C9.6098 2.0625 8.48047 3.19183 8.48047 4.58333C8.48047 5.97483 9.6098 7.10417 11.0013 7.10417C12.3928 7.10417 13.5221 5.97483 13.5221 4.58333C13.5221 3.19183 12.3928 2.0625 11.0013 2.0625ZM11.0013 3.4375C11.6338 3.4375 12.1471 3.95083 12.1471 4.58333C12.1471 5.21583 11.6338 5.72917 11.0013 5.72917C10.3688 5.72917 9.85547 5.21583 9.85547 4.58333C9.85547 3.95083 10.3688 3.4375 11.0013 3.4375Z" fill="black"/>
<path fill-rule="evenodd" clip-rule="evenodd" d="M11.0013 14.896C9.6098 14.896 8.48047 16.0253 8.48047 17.4168C8.48047 18.8083 9.6098 19.9377 11.0013 19.9377C12.3928 19.9377 13.5221 18.8083 13.5221 17.4168C13.5221 16.0253 12.3928 14.896 11.0013 14.896ZM11.0013 16.271C11.6338 16.271 12.1471 16.7843 12.1471 17.4168C12.1471 18.0493 11.6338 18.5627 11.0013 18.5627C10.3688 18.5627 9.85547 18.0493 9.85547 17.4168C9.85547 16.7843 10.3688 16.271 11.0013 16.271Z" fill="black"/>
<path fill-rule="evenodd" clip-rule="evenodd" d="M18.3333 2.0625C16.9418 2.0625 15.8125 3.19183 15.8125 4.58333C15.8125 5.97483 16.9418 7.10417 18.3333 7.10417C19.7248 7.10417 20.8542 5.97483 20.8542 4.58333C20.8542 3.19183 19.7248 2.0625 18.3333 2.0625ZM18.3333 3.4375C18.9658 3.4375 19.4792 3.95083 19.4792 4.58333C19.4792 5.21583 18.9658 5.72917 18.3333 5.72917C17.7008 5.72917 17.1875 5.21583 17.1875 4.58333C17.1875 3.95083 17.7008 3.4375 18.3333 3.4375Z" fill="black"/>
<path fill-rule="evenodd" clip-rule="evenodd" d="M18.3333 14.896C16.9418 14.896 15.8125 16.0253 15.8125 17.4168C15.8125 18.8083 16.9418 19.9377 18.3333 19.9377C19.7248 19.9377 20.8542 18.8083 20.8542 17.4168C20.8542 16.0253 19.7248 14.896 18.3333 14.896ZM18.3333 16.271C18.9658 16.271 19.4792 16.7843 19.4792 17.4168C19.4792 18.0493 18.9658 18.5627 18.3333 18.5627C17.7008 18.5627 17.1875 18.0493 17.1875 17.4168C17.1875 16.7843 17.7008 16.271 18.3333 16.271Z" fill="black"/>
<path fill-rule="evenodd" clip-rule="evenodd" d="M2.98047 6.4165V15.5832C2.98047 15.9627 3.28847 16.2707 3.66797 16.2707C4.04747 16.2707 4.35547 15.9627 4.35547 15.5832V6.4165C4.35547 6.037 4.04747 5.729 3.66797 5.729C3.28847 5.729 2.98047 6.037 2.98047 6.4165Z" fill="black"/>
<path fill-rule="evenodd" clip-rule="evenodd" d="M10.3125 6.4165V15.5832C10.3125 15.9627 10.6205 16.2707 11 16.2707C11.3795 16.2707 11.6875 15.9627 11.6875 15.5832V6.4165C11.6875 6.037 11.3795 5.729 11 5.729C10.6205 5.729 10.3125 6.037 10.3125 6.4165Z" fill="black"/>
<path fill-rule="evenodd" clip-rule="evenodd" d="M17.6471 6.4165V10.0832C17.6471 10.2097 17.5445 10.3123 17.418 10.3123H3.66797C3.28847 10.3123 2.98047 10.6203 2.98047 10.9998C2.98047 11.3793 3.28847 11.6873 3.66797 11.6873H17.418C18.3044 11.6873 19.0221 10.9687 19.0221 10.0832C19.0221 8.74575 19.0221 6.4165 19.0221 6.4165C19.0221 6.037 18.7141 5.729 18.3346 5.729C17.9551 5.729 17.6471 6.037 17.6471 6.4165Z" fill="black"/>
</svg>
